HIERARCHY
ROOT Hips
{
  OFFSET 0.0 0.0 0.0
  CHANNELS 6 XPOSITION YPOSITION ZPOSITION ZROTATION XROTATION YROTATION 
  JOINT LeftUpLeg
  {
    OFFSET 0.08945800000000001 -0.0866707 0.0010165200000000001
    CHANNELS 3 ZROTATION XROTATION YROTATION 
    JOINT LeftLeg
    {
      OFFSET 0.0 -0.444227 0.013727000000000001
      CHANNELS 3 ZROTATION XROTATION YROTATION 
      JOINT LeftFoot
      {
        OFFSET -0.0025354900000000005 -0.42092399999999996 -0.014605900000000002
        CHANNELS 3 ZROTATION XROTATION YROTATION 
        End Site
        {
          OFFSET -0.0004 -0.0441509 0.08499100000000001
        }
      }
    }
  }
  JOINT Spine
  {
    OFFSET 0.0 0.118905 0.0
    CHANNELS 3 ZROTATION XROTATION YROTATION 
    JOINT Spine1
    {
      OFFSET 0.0 0.25657399999999997 0.00127663
      CHANNELS 3 ZROTATION XROTATION YROTATION 
      End Site
      {
        OFFSET -0.0029 0.21508359999999999 0.02525291
      }
      JOINT RightArm
      {
        OFFSET -0.162727 -0.05365632 0.0010212299999999997
        CHANNELS 3 ZROTATION XROTATION YROTATION 
        JOINT RightForeArm
        {
          OFFSET -0.26364 0.00099144 -0.0142434
          CHANNELS 3 ZROTATION XROTATION YROTATION 
          End Site
          {
            OFFSET -0.220324 0.0008536199999999999 0.010221599999999999
          }
        }
      }
      JOINT LeftArm
      {
        OFFSET 0.162727 -0.053656319900000006 0.0010212299999999997
        CHANNELS 3 ZROTATION XROTATION YROTATION 
        JOINT LeftForeArm
        {
          OFFSET 0.26259699999999997 0.00099144 -0.0142434
          CHANNELS 3 ZROTATION XROTATION YROTATION 
          End Site
          {
            OFFSET 0.220902 0.0008536199999999999 0.010221599999999999
          }
        }
      }
    }
  }
  JOINT RightUpLeg
  {
    OFFSET -0.08945800000000001 -0.0866707 0.0010165200000000001
    CHANNELS 3 ZROTATION XROTATION YROTATION 
    JOINT RightLeg
    {
      OFFSET 0.0 -0.444227 0.013727000000000001
      CHANNELS 3 ZROTATION XROTATION YROTATION 
      JOINT RightFoot
      {
        OFFSET 0.0025354900000000005 -0.42092399999999996 -0.014605900000000002
        CHANNELS 3 ZROTATION XROTATION YROTATION 
        End Site
        {
          OFFSET 0.0004 -0.0441509 0.08499100000000001
        }
      }
    }
  }
}
MOTION
Frames: 12
Frame Time: 0.033333
0.44309600000000005 0.9154709093824381 0.035782 6.984069916918553 -1.479019941766845 -91.4454003064471 -4.589789792052896 -36.484797583795014 1.3361600252519756 1.090610028834963 36.777901491647775 16.304899520607503 -3.371989688041248 -35.803076402736046 -0.10984274204638805 -0.6468070149300129 45.55290165045703 1.7742700231228672 -4.373840127951426 -0.9722710250489682 2.6224899785273004 84.5858413230033 -20.191965299903636 50.364397675421245 -8.532011056444176 25.074800943201343 78.38739683989253 -71.98668313470101 -14.340311719069224 -24.24756258187525 24.714698002232637 31.105600140681435 -75.01690339016633 -3.9493400290537255 -37.90179887428962 -1.7135400364479334 -2.5946900413882905 73.21919760061898 -10.412400554762767 12.227316713471263 -35.391813637336654 0.3748885662940634 
0.43320200000000003 0.9157669093824382 0.0362598 6.846529970715183 -1.2910900615182945 -91.02009808720874 -5.14805018122201 -35.90689869321482 -0.2723029936223065 1.1299899113814946 37.25549905426633 17.16469910125434 -2.89282545078182 -36.403484181726014 -0.09802634802960071 0.022767099909388584 45.821201726338884 1.7504000060775535 -4.763189938946125 -1.1108900344194943 2.9747200592605076 85.02170984488765 -21.58595397553717 53.50826203339183 -8.991570943238374 24.93939927309501 79.778098486988 -71.69924828385936 -14.995352473682834 -21.18927024892117 24.154800075210012 30.660702108714315 -75.48240127267022 -4.062529923979176 -40.78130076043486 -2.349870021438823 -2.348670042579016 71.41729807492123 -11.289399405513343 12.169273765904494 -36.313650118667425 0.4845656895932919 
0.423662 0.9176129093824382 0.036850100000000004 6.848419798681161 -0.765093991884439 -90.72739716051701 -5.232629694374748 -35.29989978167579 -1.7116799838378687 1.1667699464534842 37.41689642435373 18.094699366190568 -2.722919372535875 -36.982383695019614 -0.10023468025637673 1.2863798990336301 46.0640012909545 1.530299934838243 -4.954550068261903 -1.1741000200933773 3.223729973378955 85.693322345975 -22.77530847608983 56.43053456411969 -9.08383911496243 24.73429893760328 81.10439828039941 -71.46779366345514 -15.7611447456882 -18.197674713212265 23.784600407100736 30.291598685966825 -75.97920191214027 -3.979520073675073 -43.199102349254744 -3.325310254262677 -2.0744099863160894 66.75169830572308 -13.532899689356384 11.21252989527308 -36.27520981401859 0.4223208950264963 
0.41438899999999995 0.9189279093824383 0.0371393 6.897310292760112 -0.21814801117864888 -90.462003330127 -5.128859910975214 -34.861200146380455 -2.8423001936137084 1.201969859949674 37.782099809085146 18.899201735316982 -2.6831371491585476 -37.684677405858665 -0.11257809940684593 2.605210026813991 46.27039936238853 1.2767799614334716 -5.067510298076513 -1.3412600421278595 3.358909875780674 86.56101591775509 -23.79277955863183 59.07024216888413 -9.022369119979608 24.497998297982935 82.46820264254336 -71.09168246661922 -16.54642183984832 -15.220566008732957 23.70050028785037 30.028199270814454 -76.50690232741545 -3.869040056302824 -44.85330244924555 -4.18940026092534 -1.7394701025799464 59.88700302002342 -14.895501938206417 10.602916728829225 -36.47394782829845 0.4069565979319642 
0.404619 0.9185089093824382 0.036561 6.9053498523000405 0.018327700397451775 -90.2704028635298 -5.2536901557936595 -34.564599181672655 -3.77539005193231 1.24066000011174 38.53909992008141 19.598500408204984 -2.7272748987922277 -38.57296058289175 -0.13581172158037155 3.2640699243906965 46.43990075192615 1.2148300389397502 -5.181720025622412 -1.609719987124976 3.4575497602267053 87.52011108100828 -24.63998256290187 61.28090119565045 -9.216960355659625 24.254300563491466 84.08889724956067 -70.47934234714924 -17.23005718142219 -12.126778890209614 23.616898772409414 29.7644993273386 -77.04240281872279 -3.6811902173336097 -45.64710020439526 -4.1374899694595975 -1.3887700909425278 51.577698819203974 -15.411299041305563 10.784078958827351 -37.0296725097382 0.47811671035633047 
0.39402099999999995 0.9172389093824381 0.0352445 6.906970314680626 0.028997998343165566 -90.12410021150812 -5.530699576640927 -34.302398464719616 -4.762229870480915 1.2882699404430198 39.49059991297755 20.387400917719795 -3.0529995766775544 -39.634211470466234 -0.19139125203322638 3.6309900344813086 46.56310028908025 1.2576600207907844 -5.231930026871645 -1.7899999487814064 3.524189994967816 88.41586306989878 -25.33737732055873 63.00714954610113 -9.620019210092186 23.981099826880126 85.93789775977483 -69.90484830587029 -17.763179059351074 -9.029904526181426 23.382300557439695 29.4660986077845 -77.53759836373789 -3.2726100087307395 -45.713202775182644 -3.3352898009703003 -1.1911100726127652 42.30340158678303 -16.59959998517875 10.671484997906983 -37.07428047520755 0.4755477588156123 
0.382403 0.9148429093824382 0.033264 6.913409902407479 0.10207999860093717 -89.73100233420638 -6.169070400811475 -34.11110194154048 -6.227330206884392 1.3518400051522093 40.77009925019604 21.35360118525709 -3.635318239980981 -40.8986843915107 -0.28936229820891246 4.056460020241151 46.584099705683464 1.155510059441601 -5.327880097445161 -1.8137599357480594 3.473459832124604 89.12709749836137 -26.014525689968377 64.30078054471238 -9.928909392664135 23.680499786413282 87.77549868426422 -69.67764206312982 -18.17224591893231 -6.205144044912898 23.073200346550767 29.202999720955606 -77.90039752188144 -3.3448298676935155 -45.116701864397925 -3.4037001219235017 -1.150950054396971 32.92750187536356 -18.159200257617584 10.29643760303429 -36.889192593983964 0.4302094433527437 
0.369015 0.9103169093824381 0.0302051 6.770219682213216 -0.44248001159880385 -88.81939747625229 -7.4641997721718925 -33.867499829697394 -8.222100614364956 1.4239400156393929 42.59969860807277 22.189899792517206 -4.261189391083582 -42.405441197888436 -0.4203540673497971 4.34751017558785 46.55390002426825 0.8372750041463107 -5.456519880273181 -1.7154800236156287 3.256530035877237 89.60576398558503 -26.843478428776145 65.1242759623733 -10.036900659857562 23.385799321842033 89.44410023812 -69.62636100284136 -18.32069154280607 -3.831613607858916 22.682001261838288 29.030899444438795 -77.9891011886324 -4.46947985180453 -43.773797881114206 -4.663470030837585 -0.6985259543772899 25.145197995429374 -18.94350063472639 10.702903014315396 -37.58332081367026 0.5336333950646932 
0.35410600000000003 0.9041909093824382 0.0257653 6.412260139983426 -1.0324199120359219 -87.42969986696482 -8.995700646365293 -33.430801439828876 -10.201499681118406 1.4893100486382924 44.79929955857284 22.51230008926744 -5.000060045588521 -44.07867020490689 -0.599995086153714 4.44037983084569 46.511098643834366 0.5364860128993785 -5.287660101630718 -1.5652099921815301 2.932810018513309 89.82142037843902 -27.89354829667932 65.31063084368793 -9.932100798553824 23.112900821101466 90.94930317646156 -69.33961600110588 -17.939618213538136 -1.9819992343931094 22.21780111527671 28.95529949561051 -77.78569815514942 -5.909259823181122 -42.14760155672045 -4.499319667627846 0.30880000273056385 20.890401661408923 -20.105300444619928 11.18541404426813 -38.436705139139164 0.6616746292058382 
0.338801 0.8980319093824383 0.020271499999999998 6.107769879897434 -1.508350054723349 -85.95799900650218 -10.123000316987449 -33.000800050441555 -11.764900100056705 1.5441001186128422 46.96680203506845 22.388499495466377 -6.015286557214523 -45.7420261734801 -0.8563876877130047 4.659739893777112 46.41690008989613 0.3852360360823683 -4.80505985233195 -1.4587699249816382 2.6453898952670603 89.77985867733949 -29.080722259339453 64.84699077263829 -9.62199996495149 22.867599699702335 92.33770304980673 -68.85601128711231 -17.077298293087562 -0.743807867418653 21.950100388494523 28.963799666032592 -77.53610255230964 -6.717800114767484 -41.1357022009939 -4.50652978607044 0.4541020320388301 20.224400160724734 -20.354699679521065 9.625935007687064 -36.59102751595623 0.369720460969891 
0.323566 0.8930629093824383 0.014671799999999999 6.153439939782724 -1.6121599654842573 -84.79429869647208 -10.610300163322009 -32.826100886945554 -12.952300312733096 1.5956999566364671 48.81619869625446 22.269100958585383 -7.142111956576186 -47.246778319336435 -1.1645817245981414 5.340080095963273 46.27910102339113 0.22523199790522314 -4.501910016870573 -1.4781599782616581 2.537409940574448 89.60323681559213 -30.16574562032017 64.09407852986028 -9.339839727696386 22.671899412055836 93.49750332182074 -68.67173278330536 -16.241399251893892 -0.12881183155795306 22.04750230115349 29.01639895283086 -77.48840051114628 -7.095080127725124 -41.17219931682386 -5.027110156022711 0.44656099626703355 21.284500161424074 -20.714500384618997 6.51548094692842 -30.480228020275067 -0.19483768277909283 
0.308303 0.8896829093824382 0.00963833 6.48990018093943 -1.3435200876911932 -84.2222976742402 -10.44800035449052 -32.8149984144497 -13.728599977002881 1.6474499521001265 50.26719725334279 22.355600181781718 -8.205059292385775 -48.59837030324441 -1.490700419021213 6.272779993168949 46.21740050952381 0.0008496779923513992 -4.584969812932982 -1.6077500111579563 2.632310083006486 89.4241697461219 -30.76075071967666 63.51333486549078 -9.312400296479506 22.582999377366246 94.02450022761143 -69.06280209442362 -15.872352178207056 0.02883312664794645 22.18599975450113 29.028399595202572 -77.57739787603154 -7.448599620107583 -41.95890050542592 -6.500910018994667 0.7916119878936021 22.707800593880716 -20.600499404729607 4.56507005678615 -23.184421439447963 -0.4780458471436916 
